<?xml version="1.0" encoding="utf-8"?>
<!-- Generator: Adobe Illustrator 16.0.0, SVG Export Plug-In . SVG Version: 6.00 Build 0)  -->
<!DOCTYPE svg PUBLIC "-//W3C//DTD SVG 1.1//EN" "http://www.w3.org/Graphics/SVG/1.1/DTD/svg11.dtd">
<svg version="1.1" id="Layer_1" xmlns="http://www.w3.org/2000/svg" xmlns:xlink="http://www.w3.org/1999/xlink" x="0px" y="0px"
	 width="1000px" height="503.111px" viewBox="0 0 1000 503.111" enable-background="new 0 0 1000 503.111" xml:space="preserve">
<g>
	<rect fill="#EC2227" width="1000" height="503.111"/>
	<polyline fill="#FFFFFF" points="729.559,31.453 841.594,31.453 841.683,102.272 790.306,102.272 790.306,168.194 841.708,168.181 
		841.708,237.594 790.384,237.604 790.345,302.557 841.594,302.557 841.594,371.5 729.663,371.566 729.559,31.453 	"/>
	<polyline fill="#FFFFFF" points="861.735,371.635 971.034,371.635 971.034,302.743 919.403,302.743 919.403,31.453 861.759,31.588 
		861.735,371.635 	"/>
	<path fill="#FFFFFF" d="M472.922,95.239c0,18.347,0,82.079,0,101.027c13.48-1.661,37.095-11.899,37.095-52.566
		C510.017,103.034,486.785,95.239,472.922,95.239 M730.067,31.453l-52.691,340.081h-68.685l-38.177-231.978
		c1.067,70.16-36.743,100.475-36.743,100.475l42.75,131.47h-59.718l-36.495-110.32l-7.361,0.181v110.146h-60.1V31.631
		c0,0,79.161-0.393,89.914-0.176c24.498,0.495,47.96,34.936,60.989,66.453l-8.738-66.453h60.353l27.104,187.46l27.676-187.46h59.924
		v-0.002H730.067z"/>
	<polyline fill="#FFFFFF" points="152.658,371.582 180.582,233.383 180.582,371.5 241.795,371.5 241.795,31.453 164.41,31.453 
		136.498,184.298 108.584,31.453 31.203,31.453 31.203,371.5 92.434,371.5 92.434,233.383 120.342,371.582 152.658,371.582 	"/>
	<path fill="#FFFFFF" d="M326.91,161.865l-15.664,112.889h31.832L326.91,161.865 M302.917,338.55l-6.369,32.95h-57.289
		l48.465-340.047h77.382l48.486,340.043h-57.303l-6.357-32.948h-47.015V338.55L302.917,338.55z"/>
	<rect x="29.528" y="390.104" fill="#FFFFFF" width="944.404" height="7.608"/>
	<rect x="29.528" y="464.925" fill="#FFFFFF" width="944.404" height="7.608"/>
	<g>
		<path fill="#FFFFFF" d="M947.914,34.116v3.158h-5.337v14.679h-3.751V37.274h-5.361v-3.158H947.914z"/>
		<path fill="#FFFFFF" d="M961.544,34.116h5.36v17.837h-3.473V39.888c0-0.347,0.004-0.833,0.013-1.458
			c0.006-0.625,0.011-1.107,0.011-1.446l-3.376,14.969h-3.617l-3.353-14.969c0,0.339,0.004,0.821,0.013,1.446
			c0.007,0.625,0.011,1.111,0.011,1.458v12.065h-3.474V34.116h5.423l3.243,14.025L961.544,34.116z"/>
	</g>
	<path fill="#FFFFFF" stroke="#FFFFFF" stroke-width="1.087" stroke-miterlimit="10" d="M77.035,426.534h-8.109
		c-0.201-1.56-1.018-2.641-2.451-3.244c-0.98-0.427-2.414-0.641-4.3-0.641c-1.484,0-2.685,0.296-3.603,0.886
		c-0.918,0.591-1.376,1.353-1.376,2.282c0,1.357,1.03,2.2,3.093,2.526l9.166,1.472c5.758,0.931,8.637,3.445,8.637,7.544
		c0,6.034-4.664,9.053-13.993,9.053c-4.376,0-7.708-0.491-9.995-1.472c-3.42-1.433-5.143-4.023-5.168-7.771h8.223
		c0.051,2.892,2.363,4.338,6.94,4.338c3.847,0,5.771-1.118,5.771-3.356c0-0.981-0.402-1.697-1.207-2.149
		c-0.629-0.378-1.748-0.692-3.356-0.944l-6.677-1.018c-2.866-0.428-4.991-1.095-6.374-1.999c-1.886-1.258-2.829-3.132-2.829-5.62
		c0-5.633,4.451-8.449,13.353-8.449C71.906,417.972,76.658,420.826,77.035,426.534z"/>
	<path fill="#FFFFFF" stroke="#FFFFFF" stroke-width="1.087" stroke-miterlimit="10" d="M204.641,445.657v-21.802h-9.994v-5.129
		h27.307v5.129h-9.994v21.802H204.641z"/>
	<path fill="#FFFFFF" stroke="#FFFFFF" stroke-width="1.087" stroke-miterlimit="10" d="M339.92,436.002v-17.275h7.317v15.464
		c0,2.037,0.302,3.546,0.904,4.526c1.007,1.71,2.979,2.564,5.923,2.564c2.941,0,4.915-0.854,5.922-2.564
		c0.603-0.98,0.904-2.489,0.904-4.526v-15.464h7.318v17.275c0,6.939-4.716,10.41-14.145,10.41
		C344.635,446.412,339.92,442.941,339.92,436.002z"/>
	<path fill="#FFFFFF" stroke="#FFFFFF" stroke-width="1.087" stroke-miterlimit="10" d="M488.838,445.657v-26.931h16.785
		c4.475,0,7.833,1.232,10.07,3.696c2.112,2.289,3.169,5.544,3.169,9.769c0,4.175-1.044,7.431-3.131,9.77
		c-2.188,2.465-5.344,3.696-9.468,3.696H488.838z M496.155,423.855v16.673h8.147c4.677,0,7.016-2.867,7.016-8.601
		c0-5.381-2.565-8.072-7.694-8.072H496.155z"/>
	<path fill="#FFFFFF" stroke="#FFFFFF" stroke-width="1.087" stroke-miterlimit="10" d="M638.782,445.657v-26.931h7.315v26.931
		H638.782z"/>
	<path fill="#FFFFFF" stroke="#FFFFFF" stroke-width="1.087" stroke-miterlimit="10" d="M765.588,432.191
		c0-3.797,0.981-6.864,2.943-9.203c2.764-3.344,7.366-5.017,13.804-5.017c6.437,0,11.039,1.673,13.806,5.017
		c1.959,2.339,2.94,5.406,2.94,9.203c0,3.798-0.981,6.865-2.94,9.204c-2.767,3.345-7.369,5.017-13.806,5.017
		c-6.438,0-11.04-1.672-13.804-5.017C766.569,439.057,765.588,435.989,765.588,432.191z M773.358,432.191
		c0,2.439,0.665,4.477,1.998,6.11c1.609,1.987,3.936,2.979,6.979,2.979c3.042,0,5.369-0.992,6.978-2.979c1.334-1.634,2-3.671,2-6.11
		c0-2.438-0.666-4.475-2-6.11c-1.608-1.986-3.936-2.98-6.978-2.98c-3.043,0-5.369,0.994-6.979,2.98
		C774.023,427.717,773.358,429.753,773.358,432.191z"/>
	<path fill="#FFFFFF" stroke="#FFFFFF" stroke-width="1.087" stroke-miterlimit="10" d="M944.772,426.534h-8.109
		c-0.201-1.56-1.018-2.641-2.45-3.244c-0.981-0.427-2.414-0.641-4.302-0.641c-1.483,0-2.684,0.296-3.601,0.886
		c-0.919,0.591-1.378,1.353-1.378,2.282c0,1.357,1.032,2.2,3.094,2.526l9.165,1.472c5.759,0.931,8.639,3.445,8.639,7.544
		c0,6.034-4.666,9.053-13.994,9.053c-4.376,0-7.708-0.491-9.996-1.472c-3.419-1.433-5.143-4.023-5.168-7.771h8.224
		c0.05,2.892,2.363,4.338,6.94,4.338c3.847,0,5.771-1.118,5.771-3.356c0-0.981-0.403-1.697-1.208-2.149
		c-0.629-0.378-1.747-0.692-3.356-0.944l-6.677-1.018c-2.866-0.428-4.991-1.095-6.374-1.999c-1.886-1.258-2.83-3.132-2.83-5.62
		c0-5.633,4.452-8.449,13.354-8.449C939.644,417.972,944.396,420.826,944.772,426.534z"/>
</g>
</svg>
